<?xml version="1.0" standalone="no"?>
<!DOCTYPE svg PUBLIC "-//W3C//DTD SVG 20010904//EN"
 "http://www.w3.org/TR/2001/REC-SVG-20010904/DTD/svg10.dtd">
<svg version="1.0" xmlns="http://www.w3.org/2000/svg"
 width="128.000000pt" height="128.000000pt" viewBox="0 0 128.000000 128.000000"
 preserveAspectRatio="xMidYMid meet">
<metadata>
Created by potrace 1.14, written by Peter Selinger 2001-2017
</metadata>
<g transform="translate(0.000000,128.000000) scale(0.100000,-0.100000)"
fill="#000000" stroke="none">
<path d="M568 1271 c-49 -16 -103 -53 -135 -93 -36 -44 -68 -135 -54 -152 5
-6 9 -34 8 -62 -1 -36 6 -61 22 -87 21 -35 22 -37 4 -37 -11 0 -24 5 -29 10
-7 7 -47 10 -100 8 -81 -3 -90 -5 -99 -25 -8 -19 -18 -23 -55 -23 -25 0 -51
-5 -58 -12 -19 -19 -17 -687 2 -732 28 -66 27 -66 571 -66 538 0 528 -1 559
64 14 29 16 80 16 379 0 386 3 370 -73 369 -35 -1 -44 3 -52 21 -9 20 -18 22
-95 25 -53 2 -93 -2 -107 -9 -34 -18 -36 -8 -11 47 32 69 31 172 -1 234 -30
56 -80 105 -129 126 -44 18 -146 27 -184 15z"/>
<path d="M254 1198 c-8 -12 42 -58 64 -58 22 0 13 28 -17 49 -34 24 -37 25
-47 9z"/>
<path d="M976 1187 c-28 -23 -29 -47 -2 -47 18 0 59 47 51 59 -9 16 -16 14
-49 -12z"/>
<path d="M279 1031 c-27 -25 -31 -33 -20 -40 26 -17 84 40 63 61 -6 6 -22 -1
-43 -21z"/>
<path d="M959 1049 c-11 -8 -8 -15 19 -39 32 -29 53 -32 51 -7 -1 21 -54 56
-70 46z"/>
</g>
</svg>
